<svg version="1.1" viewBox="0 0 400 400" xmlns="http://www.w3.org/2000/svg">
 <ellipse id="ellipse" transform="rotate(-15)" cx="141.42" cy="244.95" rx="202.65" ry="158.49" fill="#38afe5" stroke-width="3.4063"/>
 <g fill="#fff">
  <path d="m153.89 293.06 170.78-38.285 2.2685-23.912-144.02 36.468c-8.3039-3.0715-1.1678-14.149 2.1197-16.396l145.49-45.993 10.84-123.31-192.32 91.033-23.114-42.655-57.434-15.079-7.8097 21.721 49.442 13.367 52.354 95.904c3.1423 11.519-13.676 31.947-8.5986 47.133z" stroke-width="3.2402"/>
  <circle cx="195.76" cy="304.05" r="23.38" stroke-width="3.5879"/>
  <circle cx="292.07" cy="283.52" r="23.38" stroke-width="3.5879"/>
 </g>
 <path id="cart" d="m161 285.79 158.06-36.187 0.96319-10.887-143.58 34.568c-7.3969-2.736-0.68778-24.042 2.2407-26.044l146.3-47.922 8.2459-106.76-185.92 88.044-25.427-44.564-51.162-13.432-3.946 9.8818 48.207 11.907 53.686 99.414c2.7991 10.261-12.183 28.458-7.6594 41.985z" fill="#3b82f6" stroke-width="2.8864"/>
 <g transform="matrix(1.169 0 0 1.169 -33.802 -40.926)" fill="#3b82f6" stroke-width="2.3884">
  <circle cx="196.37" cy="295.1" r="15.564"/>
  <circle cx="278.76" cy="277.54" r="15.564"/>
 </g>
 <g id="text_vai" transform="matrix(1.2135 -.37501 .30377 1.0323 -33.802 -40.926)" fill="#fff" stroke-width="2.7007" aria-label="Vai!">
  <path id="char_V" d="m121.92 294.88q-2.1065 0-2.8627-2.1606l-11.019-33.759q-0.16204-0.48613-0.16204-0.70218 0-0.48613 0.32408-0.81021 0.3781-0.3781 0.86422-0.3781h6.8058q0.91823 0 1.4044 0.43211 0.54014 0.3781 0.70218 0.91824l7.5079 23.766 7.5079-23.766q0.16204-0.54014 0.64817-0.91824 0.54014-0.43211 1.4584-0.43211h6.8058q0.48612 0 0.81021 0.3781 0.37809 0.32408 0.37809 0.81021 0 0.21605-0.16204 0.70218l-11.019 33.759q-0.75619 2.1606-2.8627 2.1606z"/>
  <path id="char_a" d="m163.51 276.51q0-2.9708-3.1328-2.9708-1.7824 0-2.9168 0.97225-0.43211 0.43211-0.86422 0.54014t-1.0803 0.10803h-6.8598q-0.54014 0-0.91824-0.32408-0.32408-0.32409-0.27007-0.86423 0.16204-1.6744 1.8365-3.4569 1.7284-1.8365 4.6452-3.0248 2.9168-1.2423 6.4276-1.2423 6.4277 0 9.6145 2.9168 3.2408 2.9168 3.2408 7.886v16.366q0 0.59415-0.43211 1.0263t-1.0263 0.43211h-6.8058q-0.59416 0-1.0263-0.43211t-0.43211-1.0263v-1.5124q-1.4044 1.7284-3.3489 2.6467-1.9445 0.86422-4.9153 0.86422-4.5372 0-7.1298-2.3766-2.5386-2.3766-2.5386-6.1576 0-3.6189 2.8087-5.9415t8.8043-3.3489zm-4.9693 7.1838q-1.5124 0.27007-2.3766 0.97225-0.86422 0.64816-0.86422 1.6204 0 1.8365 2.5927 1.8365 2.3766 0 3.997-1.5124t1.6204-3.673z"/>
  <path id="char_i" d="m188.95 262.36q0 0.59416-0.43211 1.0263t-1.0263 0.43211h-6.8058q-0.59415 0-1.0263-0.43211t-0.43211-1.0263v-5.4554q0-0.59415 0.43211-1.0263t1.0263-0.43211h6.8058q0.59416 0 1.0263 0.43211t0.43211 1.0263zm0 31.058q0 0.59415-0.43211 1.0263t-1.0263 0.43211h-6.8058q-0.59415 0-1.0263-0.43211t-0.43211-1.0263v-25.17q0-0.59415 0.43211-1.0263 0.43211-0.43212 1.0263-0.43212h6.8058q0.59416 0 1.0263 0.43212 0.43211 0.43211 0.43211 1.0263z"/>
  <path id="char_exclamation" d="m205.1 281.81q0 0.59415-0.43211 1.0263t-1.0263 0.43211h-6.8058q-0.59415 0-1.0263-0.43211t-0.43211-1.0263v-23.28q0-0.59416 0.43211-1.0263t1.0263-0.43211h6.8058q0.59415 0 1.0263 0.43211t0.43211 1.0263zm0 11.613q0 0.59415-0.43211 1.0263t-1.0263 0.43211h-6.8058q-0.59415 0-1.0263-0.43211t-0.43211-1.0263v-5.4554q0-0.59415 0.43211-1.0263t1.0263-0.43211h6.8058q0.59415 0 1.0263 0.43211t0.43211 1.0263z"/>
 </g>
 <g transform="matrix(1.169 0 0 1.169 -33.802 -40.926)" fill="#fff" stroke-width="3.0814">
  <path d="m143.85 206.57-91.822-3.5505 5.2278 18.209 88.535-5.4285z"/>
  <path d="m60.337 239.18 87.006-15.673 1.7706 7.369-85.426 25.53z"/>
  <path d="m66.5 273 84.014-33.125 3.1118 7.871-82.532 40.24z"/>
 </g>
 <g transform="matrix(1.169 0 0 1.169 -33.802 -40.926)" fill="#3b82f6" stroke-width="3.0814">
  <path d="m141.45 209.64-84.915-3.5505 2.7144 10.618 83.014-2.9152z"/>
  <path d="m65.483 242.54 79.825-16.75 0.81314 3.6588-78.896 22.897z"/>
  <path d="m71.407 275.71 77.713-32.407 1.394 2.879-76.668 36.889z"/>
 </g>
</svg>
